#!OML:ASF X:\für Bonn\!DataBase\2005_08_10_Bjorn_Final\c3d\bjorn.ASF
:FULLY-SPECIFIED
:DEGREES
79
root 2.80169 11.9626 1.30128 491.806 78.27 -585.849
lowerback 40.1365 -2.36665 2.86859
upperback 20.8606 1.92878 0.105654
thorax 3.72373 2.77555 -1.84527
lowerneck -4.41683 -9.21414 2.10755
upperneck 1.34119 -12.5376 3.69977
head 1.25763 -6.20987 0.491474
rclavicle -4.77083e-015 -3.26007e-014
rhumerus 21.8234 -9.99885 -72.8177
rradius 19.9334
rwrist 14.4167
rhand -29.202 16.4771
rfingers 7.12502
rthumb -2.54679 -13.4874
lclavicle -4.77083e-015 -3.26007e-014
lhumerus 22.8098 -26.2523 64.4809
lradius 54.9585
lwrist -10.8925
lhand -29.1951 -13.1274
lfingers 7.12502
lthumb -2.54016 16.8373
rfemur -63.5321 -26.2082 -0.788766
rtibia 125.847
rfoot -28.1963 36.204
rtoes -18.0756
lfemur -73.5503 8.81364 -29.7577
ltibia 116.473
lfoot -26.4475 -8.23642
ltoes -14.4549
80
root 2.8234 11.8085 1.28877 491.219 78.1931 -586.187
lowerback 40.4796 -2.44872 2.9177
upperback 20.9769 1.91781 0.204558
thorax 3.75702 2.79058 -1.76137
lowerneck -4.24491 -9.28389 2.15328
upperneck 1.33066 -12.6258 3.70827
head 1.22335 -6.25575 0.494365
rclavicle 4.29375e-014 5.32743e-014
rhumerus 21.8934 -10.5771 -72.8407
rradius 19.5206
rwrist 14.7767
rhand -29.6311 16.8943
rfingers 7.12502
rthumb -2.96121 -13.0649
lclavicle 4.29375e-014 5.32743e-014
lhumerus 22.5742 -26.2409 64.41
lradius 55.3728
lwrist -10.7398
lhand -29.1973 -13.1235
lfingers 7.12502
lthumb -2.54224 16.8411
rfemur -63.8607 -27.5908 -1.62189
rtibia 127.126
rfoot -28.3578 37.2972
rtoes -18.6104
lfemur -74.2312 9.05823 -29.9187
ltibia 117.854
lfoot -26.5911 -8.34076
ltoes -14.8418
81
root 2.84432 11.6538 1.2753 490.746 78.1246 -586.407
lowerback 40.8002 -2.55995 3.00414
upperback 21.0898 1.88197 0.28378
thorax 3.79463 2.79777 -1.70918
lowerneck -4.22423 -9.3529 2.20467
upperneck 1.36988 -12.7203 3.68706
head 1.22808 -6.30233 0.478117
rclavicle -4.77083e-015 1.90833e-014
rhumerus 21.9559 -11.2626 -72.9744
rradius 19.1316
rwrist 15.4605
rhand -30.1577 17.3876
rfingers 7.12502
rthumb -3.46979 -12.5639
lclavicle -4.77083e-015 1.90833e-014
lhumerus 22.2868 -26.2061 64.3475
lradius 55.7535
lwrist -10.6162
lhand -29.1803 -13.1849
lfingers 7.12502
lthumb -2.52583 16.7799
rfemur -64.1679 -29.1129 -2.49991
rtibia 128.395
rfoot -28.5577 38.4322
rtoes -19.3036
lfemur -74.924 9.31081 -30.0635
ltibia 119.233
lfoot -26.7329 -8.46606
ltoes -15.3224
82
root 2.86574 11.5009 1.26339 490.325 78.0683 -586.564
lowerback 41.107 -2.66751 3.13086
upperback 21.2036 1.86464 0.351295
thorax 3.84042 2.81952 -1.69479
lowerneck -4.38371 -9.44971 2.295
upperneck 1.51838 -12.8642 3.64453
head 1.29436 -6.36893 0.435565
rclavicle -1.90833e-014 4.37326e-014
rhumerus 21.9596 -11.9878 -73.1103
rradius 18.7892
rwrist 16.1222
rhand -30.7573 17.8865
rfingers 7.12502
rthumb -4.04879 -12.0548
lclavicle -1.90833e-014 4.37326e-014
lhumerus 22.0375 -26.2786 64.2357
lradius 56.0218
lwrist -10.6784
lhand -29.3308 -13.2103
lfingers 7.12502
lthumb -2.67123 16.7527
rfemur -64.4098 -30.6981 -3.42889
rtibia 129.626
rfoot -28.5077 39.7846
rtoes -19.2211
lfemur -75.5941 9.59263 -30.1779
ltibia 120.589
lfoot -26.8609 -8.60088
ltoes -15.7496
83
root 2.88749 11.3481 1.25103 489.868 78.0159 -586.764
lowerback 41.3799 -2.76964 3.23353
upperback 21.3162 1.8422 0.429127
thorax 3.89419 2.8344 -1.65487
lowerneck -4.5634 -9.52939 2.3733
upperneck 1.70301 -12.9857 3.57009
head 1.37402 -6.42349 0.383367
rclavicle 5.56597e-014 2.14687e-014
rhumerus 21.9123 -12.684 -73.24
rradius 18.5658
rwrist 16.8198
rhand -31.2937 18.3066
rfingers 7.12502
rthumb -4.56677 -11.6242
lclavicle 5.56597e-014 2.14687e-014
lhumerus 21.7373 -26.3491 64.1687
lradius 56.2154
lwrist -10.9073
lhand -29.6216 -13.2087
lfingers 7.12502
lthumb -2.952 16.7506
rfemur -64.6082 -32.4504 -4.46849
rtibia 130.843
rfoot -28.5505 41.2406
rtoes -19.3397
lfemur -76.2812 9.90056 -30.3079
ltibia 121.936
lfoot -26.9744 -8.71029
ltoes -16.2428
84
root 2.90836 11.1979 1.23887 489.431 77.942 -586.928
lowerback 41.6744 -2.88888 3.35997
upperback 21.4015 1.80511 0.471486
thorax 3.91319 2.84554 -1.66142
lowerneck -4.69126 -9.61106 2.49556
upperneck 1.88197 -13.1103 3.50823
head 1.44104 -6.47956 0.331045
rclavicle 1.11319e-014 7.95139e-016
rhumerus 21.8251 -13.4133 -73.4353
rradius 18.3713
rwrist 17.4857
rhand -31.8162 18.7373
rfingers 7.12502
rthumb -5.07128 -11.182
lclavicle 1.11319e-014 7.95139e-016
lhumerus 21.3766 -26.4579 64.0989
lradius 56.3737
lwrist -11.1663
lhand -29.8559 -13.1678
lfingers 7.12502
lthumb -3.17826 16.7883
rfemur -64.739 -34.3203 -5.62085
rtibia 132.027
rfoot -28.3978 42.8492
rtoes -19.0668
lfemur -76.9212 10.1908 -30.4443
ltibia 123.24
lfoot -27.0762 -8.84686
ltoes -16.6131
